<svg aria-hidden="true" style="position: absolute; width: 0; height: 0; overflow: hidden;" version="1.1" xmlns="http://www.w3.org/2000/svg" xmlns:xlink="http://www.w3.org/1999/xlink">
<defs>
<svg aria-hidden="true" style="position: absolute; width: 0; height: 0; overflow: hidden;" version="1.1" xmlns="http://www.w3.org/2000/svg" xmlns:xlink="http://www.w3.org/1999/xlink">
<defs>

<symbol id="icon-log-in" viewBox="0 0 32 32">
<path fill="none" stroke-linejoin="round" stroke-linecap="round" stroke-miterlimit="4" stroke-width="2.5" d="M20 4h5.333c1.473 0 2.667 1.194 2.667 2.667v0 18.667c0 1.473-1.194 2.667-2.667 2.667v0h-5.333"></path>
<path fill="none" stroke-linejoin="round" stroke-linecap="round" stroke-miterlimit="4" stroke-width="2.5" d="M13.333 22.667l6.667-6.667-6.667-6.667"></path>
<path fill="none" stroke-linejoin="round" stroke-linecap="round" stroke-miterlimit="4" stroke-width="2.5" d="M20 16h-16"></path>
</symbol>

<symbol id="icon-log-out" viewBox="0 0 32 32">
<path fill="none" stroke-linejoin="round" stroke-linecap="round" stroke-miterlimit="4" stroke-width="2.5" d="M12 28h-5.333c-1.473 0-2.667-1.194-2.667-2.667v0-18.667c0-1.473 1.194-2.667 2.667-2.667v0h5.333"></path>
<path fill="none" stroke-linejoin="round" stroke-linecap="round" stroke-miterlimit="4" stroke-width="2.5" d="M21.333 22.667l6.667-6.667-6.667-6.667"></path>
<path fill="none" stroke-linejoin="round" stroke-linecap="round" stroke-miterlimit="4" stroke-width="2.5" d="M28 16h-16"></path>
</symbol>

<symbol id="icon-burger-menu" viewBox="0 0 32 32">
<path stroke-linejoin="round" stroke-linecap="round" stroke-miterlimit="4" stroke-width="2.5" d="M5.333 16h21.333"></path>
<path stroke-linejoin="round" stroke-linecap="round" stroke-miterlimit="4" stroke-width="2.5" d="M5.333 8h21.333"></path>
<path stroke-linejoin="round" stroke-linecap="round" stroke-miterlimit="4" stroke-width="2.5" d="M5.333 24h21.333"></path>
</symbol>

<symbol id="icon-x" viewBox="0 0 32 32">
<path stroke-linejoin="round" stroke-linecap="round" stroke-miterlimit="4" stroke-width="2.5" d="M24 8l-16 16"></path>
<path stroke-linejoin="round" stroke-linecap="round" stroke-miterlimit="4" stroke-width="2.5" d="M8 8l16 16"></path>
</symbol>

<symbol id="icon-eye" viewBox="0 0 28 28">
<path fill="none" stroke-linejoin="round" stroke-linecap="round" stroke-miterlimit="4" stroke-width="2.5" d="M2.333 14s3.5-8.167 11.667-8.167 11.667 8.167 11.667 8.167-3.5 8.167-11.667 8.167-11.667-8.167-11.667-8.167z"></path>
<path fill="none" stroke-linejoin="round" stroke-linecap="round" stroke-miterlimit="4" stroke-width="2.5" d="M17.5 14c0 1.933-1.567 3.5-3.5 3.5s-3.5-1.567-3.5-3.5c0-1.933 1.567-3.5 3.5-3.5s3.5 1.567 3.5 3.5z"></path>
</symbol>

<symbol id="icon-eye-off" viewBox="0 0 28 28">
<path fill="none" stroke-linejoin="round" stroke-linecap="round" stroke-miterlimit="4" stroke-width="2.5" d="M11.527 11.527c-0.686 0.641-1.114 1.551-1.114 2.561 0 1.933 1.567 3.5 3.5 3.5 1.010 0 1.92-0.428 2.559-1.112l0.002-0.002"></path>
<path fill="none" stroke-linejoin="round" stroke-linecap="round" stroke-miterlimit="4" stroke-width="2.5" d="M12.518 5.927c0.444-0.058 0.958-0.092 1.48-0.093h0.001c8.167 0 11.667 8.167 11.667 8.167-0.563 1.192-1.213 2.219-1.971 3.156l0.023-0.029"></path>
<path fill="none" stroke-linejoin="round" stroke-linecap="round" stroke-miterlimit="4" stroke-width="2.5" d="M7.712 7.712c-2.308 1.586-4.138 3.709-5.337 6.194l-0.041 0.094s3.5 8.167 11.667 8.167c0.009 0 0.020 0 0.030 0 2.33 0 4.496-0.701 6.299-1.904l-0.041 0.026"></path>
<path fill="none" stroke-linejoin="round" stroke-linecap="round" stroke-miterlimit="4" stroke-width="2.5" d="M2.333 2.333l23.333 23.333"></path>
</symbol>

<symbol id="icon-google-logo" viewBox="0 0 28 28">
<path stroke="none" fill="#4285f4" style="fill: var(--color1, #4285f4)" d="M26.32 14.292c0-0.91-0.082-1.785-0.233-2.625h-12.087v4.97h6.907c-0.303 1.598-1.213 2.952-2.578 3.862v3.232h4.165c2.427-2.24 3.827-5.53 3.827-9.438z"></path>
<path stroke="none" fill="#34a853" style="fill: var(--color2, #34a853)" d="M14 26.833c3.465 0 6.37-1.143 8.493-3.103l-4.165-3.232c-1.143 0.77-2.602 1.237-4.328 1.237-3.337 0-6.172-2.252-7.187-5.285h-4.27v3.313c2.112 4.188 6.44 7.070 11.457 7.070z"></path>
<path stroke="none" fill="#fbbc05" style="fill: var(--color3, #fbbc05)" d="M6.813 16.438c-0.257-0.77-0.408-1.587-0.408-2.438s0.152-1.668 0.408-2.438v-3.313h-4.27c-0.875 1.727-1.377 3.675-1.377 5.752s0.502 4.025 1.377 5.752l3.325-2.59 0.945-0.723z"></path>
<path stroke="none" fill="#ea4335" style="fill: var(--color4, #ea4335)" d="M14 6.277c1.89 0 3.57 0.653 4.912 1.913l3.675-3.675c-2.228-2.077-5.122-3.348-8.587-3.348-5.017 0-9.345 2.882-11.457 7.082l4.27 3.313c1.015-3.033 3.85-5.285 7.187-5.285z"></path>
</symbol>

<symbol id="icon-facebook-logo" viewBox="0 0 32 32">
<path stroke="none" fill="#1877f2" style="fill: var(--color1, #1877f2)" d="M31.997 15.999c0-8.836-7.163-15.999-15.999-15.999s-15.999 7.163-15.999 15.999c0 7.985 5.851 14.604 13.499 15.804v-11.18h-4.062v-4.625h4.062v-3.525c0-4.010 2.389-6.225 6.043-6.225 1.75 0 3.581 0.313 3.581 0.313v3.937h-2.017c-1.987 0-2.607 1.233-2.607 2.498v3.001h4.437l-0.709 4.625h-3.728v11.18c7.649-1.2 13.499-7.819 13.499-15.804z"></path>
</symbol>



<symbol id="icon-mac" viewBox="0 0 26 32">
<path d="M17.771 4.68c1.137-1.383 1.709-2.869 1.709-4.463 0-0.12-0.006-0.234-0.011-0.354-0.006-0.091-0.011-0.189-0.023-0.286-0.794 0.046-1.634 0.291-2.526 0.731-0.891 0.451-1.629 1.017-2.211 1.691-1.16 1.343-1.811 2.977-1.811 4.509 0 0.211 0.017 0.411 0.040 0.606 1.8 0.149 3.457-0.8 4.834-2.434zM23.829 27.503c0.646-0.943 1.206-1.966 1.674-3.080 0.194-0.474 0.383-0.966 0.554-1.48-0.8-0.343-1.52-0.823-2.166-1.446-1.417-1.349-2.143-3.040-2.166-5.074-0.023-2.611 1.143-4.646 3.491-6.097-1.314-1.903-3.286-2.96-5.914-3.177-0.971-0.086-2.154 0.126-3.56 0.64-1.48 0.56-2.354 0.834-2.611 0.834-0.349 0-1.137-0.234-2.36-0.709-1.234-0.469-2.223-0.703-2.977-0.703-1.383 0.023-2.663 0.389-3.846 1.109-1.189 0.714-2.137 1.691-2.846 2.937-0.909 1.543-1.36 3.383-1.36 5.52 0 1.863 0.337 3.789 1.006 5.783 0.623 1.84 1.423 3.457 2.394 4.846 0.903 1.309 1.657 2.229 2.263 2.766 0.943 0.897 1.891 1.326 2.84 1.28 0.629-0.017 1.446-0.24 2.457-0.657 1.017-0.417 1.96-0.623 2.846-0.623 0.84 0 1.76 0.206 2.766 0.623 1 0.417 1.857 0.629 2.566 0.629 0.994-0.029 1.92-0.44 2.783-1.251 0.554-0.497 1.28-1.383 2.166-2.669z"></path>
</symbol>

<symbol id="icon-home" viewBox="0 0 32 32">
<path fill="#ffda44" style="fill: var(--color1, #ffda44)" d="M32 16c0 8.834-7.166 16-16 16-8.846 0-16-7.166-16-16 0-8.846 7.154-16 16-16 8.834 0 16 7.154 16 16z"></path>
<path fill="#338af3" style="fill: var(--color2, #338af3)" d="M0 16c0-8.846 7.154-16 16-16 8.834 0 16 7.154 16 16h-32z"></path>
</symbol>

</defs>
</svg>
