<svg aria-hidden="true" style="position: absolute; width: 0; height: 0; overflow: hidden;" version="1.1" xmlns="http://www.w3.org/2000/svg" xmlns:xlink="http://www.w3.org/1999/xlink">
<defs>
<svg aria-hidden="true" style="position: absolute; width: 0; height: 0; overflow: hidden;" version="1.1" xmlns="http://www.w3.org/2000/svg" xmlns:xlink="http://www.w3.org/1999/xlink">
<defs>

<symbol id="icon-log-in" viewBox="0 0 32 32">
<path fill="none" stroke-linejoin="round" stroke-linecap="round" stroke-miterlimit="4" stroke-width="3" d="M20 4h5.333c1.473 0 2.667 1.194 2.667 2.667v0 18.667c0 1.473-1.194 2.667-2.667 2.667v0h-5.333"></path>
<path fill="none" stroke-linejoin="round" stroke-linecap="round" stroke-miterlimit="4" stroke-width="3" d="M13.333 22.667l6.667-6.667-6.667-6.667"></path>
<path fill="none" stroke-linejoin="round" stroke-linecap="round" stroke-miterlimit="4" stroke-width="3" d="M20 16h-16"></path>
</symbol>

<symbol id="icon-log-out" viewBox="0 0 32 32">
<path fill="none" stroke-linejoin="round" stroke-linecap="round" stroke-miterlimit="4" stroke-width="3" d="M12 28h-5.333c-1.473 0-2.667-1.194-2.667-2.667v0-18.667c0-1.473 1.194-2.667 2.667-2.667v0h5.333"></path>
<path fill="none" stroke-linejoin="round" stroke-linecap="round" stroke-miterlimit="4" stroke-width="3" d="M21.333 22.667l6.667-6.667-6.667-6.667"></path>
<path fill="none" stroke-linejoin="round" stroke-linecap="round" stroke-miterlimit="4" stroke-width="3" d="M28 16h-16"></path>
</symbol>

<symbol id="icon-burger-menu" viewBox="0 0 32 32">
<path stroke-linejoin="round" stroke-linecap="round" stroke-miterlimit="4" stroke-width="3" d="M5.333 16h21.333"></path>
<path stroke-linejoin="round" stroke-linecap="round" stroke-miterlimit="4" stroke-width="3" d="M5.333 8h21.333"></path>
<path stroke-linejoin="round" stroke-linecap="round" stroke-miterlimit="4" stroke-width="3" d="M5.333 24h21.333"></path>
</symbol>

<symbol id="icon-mac" viewBox="0 0 26 32">
<path d="M17.771 4.68c1.137-1.383 1.709-2.869 1.709-4.463 0-0.12-0.006-0.234-0.011-0.354-0.006-0.091-0.011-0.189-0.023-0.286-0.794 0.046-1.634 0.291-2.526 0.731-0.891 0.451-1.629 1.017-2.211 1.691-1.16 1.343-1.811 2.977-1.811 4.509 0 0.211 0.017 0.411 0.040 0.606 1.8 0.149 3.457-0.8 4.834-2.434zM23.829 27.503c0.646-0.943 1.206-1.966 1.674-3.080 0.194-0.474 0.383-0.966 0.554-1.48-0.8-0.343-1.52-0.823-2.166-1.446-1.417-1.349-2.143-3.040-2.166-5.074-0.023-2.611 1.143-4.646 3.491-6.097-1.314-1.903-3.286-2.96-5.914-3.177-0.971-0.086-2.154 0.126-3.56 0.64-1.48 0.56-2.354 0.834-2.611 0.834-0.349 0-1.137-0.234-2.36-0.709-1.234-0.469-2.223-0.703-2.977-0.703-1.383 0.023-2.663 0.389-3.846 1.109-1.189 0.714-2.137 1.691-2.846 2.937-0.909 1.543-1.36 3.383-1.36 5.52 0 1.863 0.337 3.789 1.006 5.783 0.623 1.84 1.423 3.457 2.394 4.846 0.903 1.309 1.657 2.229 2.263 2.766 0.943 0.897 1.891 1.326 2.84 1.28 0.629-0.017 1.446-0.24 2.457-0.657 1.017-0.417 1.96-0.623 2.846-0.623 0.84 0 1.76 0.206 2.766 0.623 1 0.417 1.857 0.629 2.566 0.629 0.994-0.029 1.92-0.44 2.783-1.251 0.554-0.497 1.28-1.383 2.166-2.669z"></path>
</symbol>

<symbol id="icon-home" viewBox="0 0 32 32">
<path fill="#ffda44" style="fill: var(--color1, #ffda44)" d="M32 16c0 8.834-7.166 16-16 16-8.846 0-16-7.166-16-16 0-8.846 7.154-16 16-16 8.834 0 16 7.154 16 16z"></path>
<path fill="#338af3" style="fill: var(--color2, #338af3)" d="M0 16c0-8.846 7.154-16 16-16 8.834 0 16 7.154 16 16h-32z"></path>
</symbol>

</defs>
</svg>
