<svg aria-hidden="true" style="position: absolute; width: 0; height: 0; overflow: hidden;" version="1.1" xmlns="http://www.w3.org/2000/svg" xmlns:xlink="http://www.w3.org/1999/xlink">
<defs>
<svg aria-hidden="true" style="position: absolute; width: 0; height: 0; overflow: hidden;" version="1.1" xmlns="http://www.w3.org/2000/svg" xmlns:xlink="http://www.w3.org/1999/xlink">
<defs>

<symbol id="icon-log-in" viewBox="0 0 32 32">
<path fill="none" stroke-linejoin="round" stroke-linecap="round" stroke-miterlimit="4" stroke-width="2.5" d="M20 4h5.333c1.473 0 2.667 1.194 2.667 2.667v0 18.667c0 1.473-1.194 2.667-2.667 2.667v0h-5.333"></path>
<path fill="none" stroke-linejoin="round" stroke-linecap="round" stroke-miterlimit="4" stroke-width="2.5" d="M13.333 22.667l6.667-6.667-6.667-6.667"></path>
<path fill="none" stroke-linejoin="round" stroke-linecap="round" stroke-miterlimit="4" stroke-width="2.5" d="M20 16h-16"></path>
</symbol>

<symbol id="icon-log-out" viewBox="0 0 32 32">
<path fill="none" stroke-linejoin="round" stroke-linecap="round" stroke-miterlimit="4" stroke-width="2.5" d="M12 28h-5.333c-1.473 0-2.667-1.194-2.667-2.667v0-18.667c0-1.473 1.194-2.667 2.667-2.667v0h5.333"></path>
<path fill="none" stroke-linejoin="round" stroke-linecap="round" stroke-miterlimit="4" stroke-width="2.5" d="M21.333 22.667l6.667-6.667-6.667-6.667"></path>
<path fill="none" stroke-linejoin="round" stroke-linecap="round" stroke-miterlimit="4" stroke-width="2.5" d="M28 16h-16"></path>
</symbol>

<symbol id="icon-burger-menu" viewBox="0 0 32 32">
<path stroke-linejoin="round" stroke-linecap="round" stroke-miterlimit="4" stroke-width="2.5" d="M5.333 16h21.333"></path>
<path stroke-linejoin="round" stroke-linecap="round" stroke-miterlimit="4" stroke-width="2.5" d="M5.333 8h21.333"></path>
<path stroke-linejoin="round" stroke-linecap="round" stroke-miterlimit="4" stroke-width="2.5" d="M5.333 24h21.333"></path>
</symbol>

<symbol id="icon-x" viewBox="0 0 32 32">
<path stroke-linejoin="round" stroke-linecap="round" stroke-miterlimit="4" stroke-width="2.5" d="M24 8l-16 16"></path>
<path stroke-linejoin="round" stroke-linecap="round" stroke-miterlimit="4" stroke-width="2.5" d="M8 8l16 16"></path>
</symbol>

<symbol id="icon-eye" viewBox="0 0 28 28">
<path fill="none" stroke-linejoin="round" stroke-linecap="round" stroke-miterlimit="4" stroke-width="2.5" d="M2.333 14s3.5-8.167 11.667-8.167 11.667 8.167 11.667 8.167-3.5 8.167-11.667 8.167-11.667-8.167-11.667-8.167z"></path>
<path fill="none" stroke-linejoin="round" stroke-linecap="round" stroke-miterlimit="4" stroke-width="2.5" d="M17.5 14c0 1.933-1.567 3.5-3.5 3.5s-3.5-1.567-3.5-3.5c0-1.933 1.567-3.5 3.5-3.5s3.5 1.567 3.5 3.5z"></path>
</symbol>

<symbol id="icon-eye-off" viewBox="0 0 28 28">
<path fill="none" stroke-linejoin="round" stroke-linecap="round" stroke-miterlimit="4" stroke-width="2.5" d="M11.527 11.527c-0.686 0.641-1.114 1.551-1.114 2.561 0 1.933 1.567 3.5 3.5 3.5 1.010 0 1.92-0.428 2.559-1.112l0.002-0.002"></path>
<path fill="none" stroke-linejoin="round" stroke-linecap="round" stroke-miterlimit="4" stroke-width="2.5" d="M12.518 5.927c0.444-0.058 0.958-0.092 1.48-0.093h0.001c8.167 0 11.667 8.167 11.667 8.167-0.563 1.192-1.213 2.219-1.971 3.156l0.023-0.029"></path>
<path fill="none" stroke-linejoin="round" stroke-linecap="round" stroke-miterlimit="4" stroke-width="2.5" d="M7.712 7.712c-2.308 1.586-4.138 3.709-5.337 6.194l-0.041 0.094s3.5 8.167 11.667 8.167c0.009 0 0.020 0 0.030 0 2.33 0 4.496-0.701 6.299-1.904l-0.041 0.026"></path>
<path fill="none" stroke-linejoin="round" stroke-linecap="round" stroke-miterlimit="4" stroke-width="2.5" d="M2.333 2.333l23.333 23.333"></path>
</symbol>

<symbol id="icon-google-logo" viewBox="0 0 28 28">
<path stroke="none" fill="#4285f4" style="fill: var(--color1, #4285f4)" d="M26.32 14.292c0-0.91-0.082-1.785-0.233-2.625h-12.087v4.97h6.907c-0.303 1.598-1.213 2.952-2.578 3.862v3.232h4.165c2.427-2.24 3.827-5.53 3.827-9.438z"></path>
<path stroke="none" fill="#34a853" style="fill: var(--color2, #34a853)" d="M14 26.833c3.465 0 6.37-1.143 8.493-3.103l-4.165-3.232c-1.143 0.77-2.602 1.237-4.328 1.237-3.337 0-6.172-2.252-7.187-5.285h-4.27v3.313c2.112 4.188 6.44 7.070 11.457 7.070z"></path>
<path stroke="none" fill="#fbbc05" style="fill: var(--color3, #fbbc05)" d="M6.813 16.438c-0.257-0.77-0.408-1.587-0.408-2.438s0.152-1.668 0.408-2.438v-3.313h-4.27c-0.875 1.727-1.377 3.675-1.377 5.752s0.502 4.025 1.377 5.752l3.325-2.59 0.945-0.723z"></path>
<path stroke="none" fill="#ea4335" style="fill: var(--color4, #ea4335)" d="M14 6.277c1.89 0 3.57 0.653 4.912 1.913l3.675-3.675c-2.228-2.077-5.122-3.348-8.587-3.348-5.017 0-9.345 2.882-11.457 7.082l4.27 3.313c1.015-3.033 3.85-5.285 7.187-5.285z"></path>
</symbol>

<symbol id="icon-facebook-logo" viewBox="0 0 32 32">
<path stroke="none" fill="#1877f2" style="fill: var(--color1, #1877f2)" d="M31.997 15.999c0-8.836-7.163-15.999-15.999-15.999s-15.999 7.163-15.999 15.999c0 7.985 5.851 14.604 13.499 15.804v-11.18h-4.062v-4.625h4.062v-3.525c0-4.010 2.389-6.225 6.043-6.225 1.75 0 3.581 0.313 3.581 0.313v3.937h-2.017c-1.987 0-2.607 1.233-2.607 2.498v3.001h4.437l-0.709 4.625h-3.728v11.18c7.649-1.2 13.499-7.819 13.499-15.804z"></path>
</symbol>

<symbol id="icon-book-open" viewBox="0 0 16 16">
<path fill="none" stroke-linejoin="round" stroke-linecap="butt" stroke-miterlimit="4" stroke-width="1.5" d="M12.26 2c-1.49 0-2.24 0-2.81 0.29-0.5 0.25-0.91 0.66-1.16 1.16-0.29 0.57-0.29 1.32-0.29 2.81v7.74l0.060-0.11c0.46-0.69 0.7-1.040 1-1.29 0.27-0.22 0.59-0.39 0.92-0.49 0.38-0.11 0.8-0.11 1.63-0.11h0.92c0.75 0 1.12 0 1.4-0.15 0.25-0.13 0.46-0.33 0.59-0.58 0.14-0.29 0.14-0.66 0.14-1.41v-5.73c0-0.75 0-1.12-0.14-1.41-0.13-0.25-0.34-0.45-0.59-0.58-0.28-0.14-0.65-0.14-1.4-0.14h-0.27z"></path>
<path fill="none" stroke-linejoin="round" stroke-linecap="butt" stroke-miterlimit="4" stroke-width="1.5" d="M3.73 2c1.49 0 2.24 0 2.81 0.29 0.5 0.25 0.91 0.66 1.16 1.16 0.3 0.57 0.3 1.32 0.3 2.81v7.74l-0.070-0.11c-0.46-0.69-0.7-1.040-1-1.29-0.27-0.22-0.59-0.39-0.92-0.49-0.38-0.11-0.8-0.11-1.63-0.11h-0.92c-0.75 0-1.12 0-1.4-0.15-0.25-0.13-0.46-0.33-0.59-0.58-0.14-0.29-0.14-0.66-0.14-1.41v-5.73c0-0.75 0-1.12 0.14-1.41 0.13-0.25 0.34-0.45 0.59-0.58 0.28-0.14 0.65-0.14 1.4-0.14h0.27z"></path>
</symbol>

<symbol id="icon-star" viewBox="0 0 17 19">
<path  d="M7.849 0.307l-2.234 4.232c-0.083 0.165-0.236 0.272-0.414 0.307l-4.717 0.816c-0.473 0.083-0.65 0.65-0.319 0.993l3.334 3.428c0.13 0.13 0.189 0.319 0.154 0.496l-0.674 4.74c-0.071 0.473 0.414 0.816 0.839 0.615l4.291-2.116c0.165-0.083 0.366-0.083 0.532 0l4.291 2.116c0.426 0.201 0.91-0.142 0.839-0.615l-0.674-4.74c-0.035-0.177 0.024-0.366 0.154-0.496l3.334-3.428c0.331-0.343 0.154-0.91-0.319-0.993l-4.717-0.816c-0.177-0.035-0.331-0.142-0.414-0.307l-2.234-4.232c-0.225-0.414-0.828-0.414-1.052 0z"></path>
<path  d="M5.615 4.539l2.234-4.232c0.225-0.414 0.828-0.414 1.052 0l2.234 4.232c0.083 0.165 0.236 0.272 0.414 0.307l4.717 0.816c0.473 0.083 0.65 0.65 0.319 0.993l-3.334 3.428c-0.13 0.13-0.189 0.319-0.154 0.496l0.674 4.74c0.071 0.473-0.414 0.816-0.839 0.615l-4.291-2.116c-0.165-0.083-0.366-0.083-0.532 0l-4.291 2.116c-0.426 0.201-0.91-0.142-0.839-0.615l0.674-4.74c0.035-0.177-0.024-0.366-0.154-0.496l-3.334-3.428c-0.331-0.343-0.154-0.91 0.319-0.993l4.717-0.816c0.177-0.035 0.331-0.142 0.414-0.307zM6.88 5.201c-0.296 0.556-0.827 0.934-1.442 1.040l-3.168 0.556 2.246 2.305c0.437 0.437 0.638 1.064 0.544 1.679l-0.461 3.192 2.884-1.419c0.567-0.284 1.218-0.284 1.773 0l2.896 1.419-0.461-3.192c-0.095-0.615 0.106-1.241 0.544-1.679l2.246-2.305-3.168-0.556c-0.615-0.106-1.147-0.485-1.442-1.040l-1.501-2.837-1.489 2.837z"></path>
</symbol>

<symbol id="icon-heart" viewBox="0 0 32 32">
<path stroke-linejoin="round" stroke-linecap="butt" stroke-miterlimit="4" stroke-width="2.5" d="M25.403 4.554c-0.886-0.369-1.846-0.566-2.806-0.566-0.972 0-1.92 0.197-2.806 0.566-0.898 0.369-1.698 0.911-2.388 1.588l-1.403 1.415-1.415-1.415c-1.378-1.378-3.249-2.154-5.194-2.154s-3.803 0.775-5.182 2.154c-1.378 1.378-2.154 3.237-2.154 5.182s0.775 3.815 2.154 5.194l1.415 1.415 10.375 10.363 11.778-11.778c0.689-0.689 1.218-1.489 1.588-2.388 0.369-0.886 0.566-1.834 0.566-2.806 0-0.96-0.197-1.908-0.566-2.806-0.369-0.886-0.898-1.698-1.588-2.375-0.677-0.677-1.489-1.218-2.375-1.588z"></path>
</symbol>

<symbol id="icon-mac" viewBox="0 0 26 32">
<path d="M17.771 4.68c1.137-1.383 1.709-2.869 1.709-4.463 0-0.12-0.006-0.234-0.011-0.354-0.006-0.091-0.011-0.189-0.023-0.286-0.794 0.046-1.634 0.291-2.526 0.731-0.891 0.451-1.629 1.017-2.211 1.691-1.16 1.343-1.811 2.977-1.811 4.509 0 0.211 0.017 0.411 0.040 0.606 1.8 0.149 3.457-0.8 4.834-2.434zM23.829 27.503c0.646-0.943 1.206-1.966 1.674-3.080 0.194-0.474 0.383-0.966 0.554-1.48-0.8-0.343-1.52-0.823-2.166-1.446-1.417-1.349-2.143-3.040-2.166-5.074-0.023-2.611 1.143-4.646 3.491-6.097-1.314-1.903-3.286-2.96-5.914-3.177-0.971-0.086-2.154 0.126-3.56 0.64-1.48 0.56-2.354 0.834-2.611 0.834-0.349 0-1.137-0.234-2.36-0.709-1.234-0.469-2.223-0.703-2.977-0.703-1.383 0.023-2.663 0.389-3.846 1.109-1.189 0.714-2.137 1.691-2.846 2.937-0.909 1.543-1.36 3.383-1.36 5.52 0 1.863 0.337 3.789 1.006 5.783 0.623 1.84 1.423 3.457 2.394 4.846 0.903 1.309 1.657 2.229 2.263 2.766 0.943 0.897 1.891 1.326 2.84 1.28 0.629-0.017 1.446-0.24 2.457-0.657 1.017-0.417 1.96-0.623 2.846-0.623 0.84 0 1.76 0.206 2.766 0.623 1 0.417 1.857 0.629 2.566 0.629 0.994-0.029 1.92-0.44 2.783-1.251 0.554-0.497 1.28-1.383 2.166-2.669z"></path>
</symbol>

<symbol id="icon-home" viewBox="0 0 32 32">
<path fill="#ffda44" style="fill: var(--color1, #ffda44)" d="M32 16c0 8.834-7.166 16-16 16-8.846 0-16-7.166-16-16 0-8.846 7.154-16 16-16 8.834 0 16 7.154 16 16z"></path>
<path fill="#338af3" style="fill: var(--color2, #338af3)" d="M0 16c0-8.846 7.154-16 16-16 8.834 0 16 7.154 16 16h-32z"></path>
</symbol>

</defs>
</svg>
