<svg xmlns="http://www.w3.org/2000/svg" style="display:none"><defs><symbol id="picture" viewBox="0 0 645.354 564"><path fill="var(--fill1, #f2f2f2)" d="m610.56 509.071.998-22.434a72.46 72.46 0 0 1 33.796-8.555c-16.231 13.27-14.203 38.852-25.207 56.697a43.58 43.58 0 0 1-31.96 20.14l-13.583 8.316a73.03 73.03 0 0 1 15.393-59.178 70.5 70.5 0 0 1 12.964-12.046c3.254 8.578 7.6 17.06 7.6 17.06"/><circle cx="529.903" cy="507.44" r="54.434" fill="var(--primary, #f4c550)"/><path fill="var(--fill3, #2f2e41)" d="M507.688 486.148a51.2 51.2 0 0 1-3.65 11.647c-9.602 20.313 17.744 13.692 27.516 13.692 10.685 0 20.908 5.618 19.347-19.346-.667-10.664-8.662-19.347-19.347-19.347-9.126 0-21.958 4.057-23.866 13.354"/><circle cx="529.953" cy="495.761" r="15.721" fill="var(--fill4, #ffb6b6)"/><path fill="var(--fill3, #2f2e41)" d="M519.277 479.736a18.008 18.008 0 0 1 27.379 15.716c-8.011 2.011-16.427 3.55-24.97.48l-2.017-4.937-1.19 4.942c-2.601 1.063-5.21 1.963-7.818-.01a18.39 18.39 0 0 1 8.616-16.191"/><path fill="var(--fill5, #3f3d56)" d="M572.229 543.635a54.415 54.415 0 0 1-76.158 5.504l4.67-13.028a14.01 14.01 0 0 1 11.9-8.172l2.97-.182 7.083-6.109s19.083-.681 18.8-1.007l11.56 6.953-.01-.048 4.544.278a14 14 0 0 1 11.9 8.172Z"/><path fill="var(--fill1, #f2f2f2)" d="M108.869 123.749a54.434 54.434 0 1 1-54.338-54.53 54.294 54.294 0 0 1 54.338 54.53"/><path fill="var(--fill6, #ccc)" d="M29.205 105.945c2.25-7.173 7.369-13.752 14.448-16.177s17.444 1.269 22.766 6.573c9.735 9.702 12.111 43.031 5.423 53.564-1.33-.07-5.921-.123-7.267-.173l-1.905-6.348v6.285q-3.218-.1-6.486-.137a28.226 28.226 0 0 1-27.867-27.529c-.174-6.986 0-13.231.888-16.058"/><circle cx="53.627" cy="114.206" r="15.513" fill="var(--fill6, #ccc)"/><path fill="var(--fill6, #ccc)" d="M40.239 100.581 58.1 91.637a22.45 22.45 0 0 1 13.15 18.601l.444 5.333-7.48-1.904-.819-6.82-1.27 6.288-3.452-.878.033-10.587-3.454 10.58-12.329-2.833ZM94.828 159.675a54.415 54.415 0 0 1-76.157 5.504l4.669-13.028a14.01 14.01 0 0 1 11.9-8.172l2.97-.182 7.083-6.109s19.084-.681 18.8-1.008l11.56 6.953-.01-.048 4.545.279a14 14 0 0 1 11.9 8.172Z"/><circle cx="54.822" cy="373.652" r="54.434" fill="var(--fill1, #f2f2f2)"/><path fill="var(--fill6, #ccc)" d="M32.606 352.36a51.2 51.2 0 0 1-3.649 11.647C19.355 384.321 46.7 377.7 56.473 377.7c10.685 0 20.908 5.618 19.346-19.347-.667-10.663-8.661-19.346-19.346-19.346-9.127 0-21.958 4.057-23.867 13.354"/><circle cx="54.872" cy="361.974" r="15.721" fill="var(--fill6, #ccc)"/><path fill="var(--fill6, #ccc)" d="M44.196 345.948a18.008 18.008 0 0 1 27.378 15.717c-8.01 2.01-16.426 3.55-24.969.48l-2.017-4.937-1.19 4.941c-2.601 1.064-5.21 1.963-7.818-.01a18.39 18.39 0 0 1 8.616-16.19M97.147 409.848a54.415 54.415 0 0 1-76.157 5.504l4.669-13.028a14.01 14.01 0 0 1 11.9-8.172l2.97-.182 7.083-6.109s19.084-.681 18.8-1.008l11.56 6.954-.01-.048 4.545.278a14 14 0 0 1 11.9 8.172Z"/><circle cx="289.014" cy="290.203" r="88.134" fill="var(--fill1, #f2f2f2)"/><circle cx="292.606" cy="270.454" r="28.739" fill="var(--fill6, #ccc)"/><path id="e457262b-f043-4272-b9dd-aba1e09de7d8-918" fill="var(--fill6, #ccc)" d="M595.232 419.469s7.483-14.305-8.98-15.605c0 0-14.033-12.73-28.337-2.327 0 0-7.803 0-12.07 8.829 0 0-6.136-2.327-7.485 3.901 0 0-4.49 13.004 0 24.708s5.982 13.004 5.982 13.004-3.15-14.523 14.81-15.824 34.436-12.551 35.933 1.753 3.142 7.843 3.142 7.843 14.216-20.43-2.995-26.282" data-name="bf427902-b9bf-4946-b5d7-5c1c7e04535e" transform="translate(-277.323 -168)"/><path fill="var(--fill6, #ccc)" d="M354.807 348.807a88.103 88.103 0 0 1-123.305 8.91l7.56-21.093a22.68 22.68 0 0 1 19.267-13.23l4.81-.296 11.467-9.89s30.898-1.103 30.44-1.631l18.715 11.257-.015-.078 7.357.451a22.67 22.67 0 0 1 19.268 13.231Z"/><circle cx="143.856" cy="236.059" r="54.434" fill="var(--fill1, #f2f2f2)"/><circle cx="142.354" cy="225.426" r="17.376" fill="var(--fill6, #ccc)"/><path fill="var(--fill6, #ccc)" d="M184.694 272.48a54.415 54.415 0 0 1-76.157 5.504l4.669-13.028a14.01 14.01 0 0 1 11.9-8.172l2.97-.182 7.083-6.109s19.084-.681 18.8-1.007l11.56 6.953-.01-.048 4.545.278a14 14 0 0 1 11.9 8.172ZM160.68 214.65a22.4 22.4 0 0 0-9.382-12.764c-3.648-2.334-8.2-3.525-12.333-2.291s-7.555 5.29-7.284 9.672a4.24 4.24 0 0 0-4.28 1.322 9.8 9.8 0 0 0-2.1 4.25 27.03 27.03 0 0 0 .254 14.967l-.082.699c2.016-.334 3.545-2.064 4.496-3.907s1.499-3.888 2.53-5.686 2.742-3.402 4.784-3.458l-.18 3.12 5.27-2.715-1.253 3 4.602-1.925-.514 2.884a6.85 6.85 0 0 1 9.428-3.048 9.1 9.1 0 0 1 3.72 5.233 27.6 27.6 0 0 1 .89 6.532 22.84 22.84 0 0 0 1.434-15.885"/><path fill="var(--fill1, #f2f2f2)" d="M259.374 279.902v.033a1.4 1.4 0 0 1-.097-.373ZM259.374 279.935c.081.34.179.68.276 1.003a3 3 0 0 1-.405.081Z"/><path fill="var(--primary, #f4c550)" d="M377.147 290.021a88.126 88.126 0 0 1-84.678 88.046V201.976a88.107 88.107 0 0 1 84.678 88.045"/><path fill="var(--fill4, #ffb6b6)" d="m259.277 279.562.097.34v.033a1.4 1.4 0 0 1-.097-.373"/><path fill="var(--fill7, #a0616a)" d="M314.715 272.81a27.7 27.7 0 0 1-.858 6.898v.016a28.17 28.17 0 0 1-21.389 20.595v-55.033a28.165 28.165 0 0 1 22.247 27.525"/><path fill="var(--fill5, #3f3d56)" d="M355.127 348.988a87.8 87.8 0 0 1-62.658 29.856v-66.172c6.88-.323 13.114-.663 12.904-.906l18.716 11.252-.016-.08 7.35.453a22.64 22.64 0 0 1 19.268 13.228l4.258 11.867Z"/><path fill="var(--fill3, #2f2e41)" d="M259.374 279.935c.081.34.179.68.276 1.003a3 3 0 0 1-.405.081ZM313.938 281.068c-.033-.453-.05-.89-.081-1.344v-.016a40 40 0 0 0-1.36-9.213c-1.053-3.4-3.028-6.654-6.023-8.468-4.485-2.72-10.784-1.246-14.005 2.834v-33.952a29.6 29.6 0 0 1 8.597 3.788 36.24 36.24 0 0 1 15.187 20.66 37 37 0 0 1-2.315 25.71M291.257 564a1.06 1.06 0 0 1-1.11-1V1a1.116 1.116 0 0 1 2.22 0v562a1.06 1.06 0 0 1-1.11 1"/><path fill="var(--fill4, #ffb6b6)" d="m401.821 262.696-30.658-7.52-40.875-34.75 6.806-10.806 37.028 23.588S398.62 239.428 407 246.6Z"/><circle cx="331.711" cy="213.614" r="7.469" fill="var(--fill4, #ffb6b6)"/><path fill="var(--fill8, #e6e6e6)" d="m403.26 242.587-28.43-11.593-13.664 16.226 10.15 8.364 27.674 7.191.02.073c1.943 7.164 14.441 12.027 24.583 14.846a13.696 13.696 0 0 0 16.575-8.653 13.73 13.73 0 0 0-3.225-14.126l-9.21-9.235Z"/><path fill="var(--fill4, #ffb6b6)" d="m324.649 533.953-9.964-3.792 9.882-40.235 14.705 5.596z"/><path fill="var(--fill3, #2f2e41)" d="m328.429 531.667-2.805-1.067-9.255-8.619-7.563 2.22a13.38 13.38 0 0 0-17.263 7.746l-.155.407 32.128 12.224Z"/><path fill="var(--fill4, #ffb6b6)" d="m425.371 550.657-10.66-.001-5.072-41.119 15.734.001z"/><path fill="var(--fill3, #2f2e41)" d="M428.091 547.176h-3l-11.716-4.764-6.279 4.764a13.38 13.38 0 0 0-13.38 13.379v.435h34.374ZM441.627 373.54s1.245 14.938-1.867 29.253c-1.951 8.974-2.679 28.165-2.95 41.237-.162 7.782-3.662 9.022-3.662 9.022l2.321 17.896-5.668 65.041-20.54-1.867-5.601-131.328-36.917 29.19 1.024 3.415c.498 1.66-3.175 1.447-4.644 2.366l-3.622 8.403a6.8 6.8 0 0 1-4.115 6.601L336.147 510l-15-9 5-52 7-24 28.189-34.655.622-9.958 2.801.115 1.426-4.16 2.62-7.159Z"/><path fill="var(--fill8, #e6e6e6)" d="m442.703 376.678.11-.156c5.925-8.294-2.985-28.225-4.329-31.115a7.254 7.254 0 0 0 4.965-7.747l-.58-4.924-.603-4.83 4.326-4.327.012-.108 2.49-21.784 3.62-14.469a31.77 31.77 0 0 0-9.016-30.785l-8.368-7.889-10.169-15.046h-16.398l-5.623 10.62a23.9 23.9 0 0 0-18.493 24.403l1.275 27.855-4.99 34.68-.002 6.277-2.598 2.888a8.99 8.99 0 0 0-2.132 7.773l.342 1.708a8.99 8.99 0 0 0-5.247 6.376l-.913 4.259c-.78 1.03-5.934 7.901-5.934 9.78 0 .282.208.555.655.857 3.512 2.378 22.924 7.226 31.515 3.789 9.151-3.66 45.53 1.83 45.896 1.886Z"/><circle cx="414.844" cy="206.923" r="21.718" fill="var(--fill4, #ffb6b6)"/><path fill="var(--fill4, #ffb6b6)" d="m407.761 302.325-15.087 27.728-44.021 30.667-8.714-9.336 32.248-29.792s12.259-22.103 21.33-28.377Z"/><circle cx="342.429" cy="357.608" r="7.469" fill="var(--fill4, #ffb6b6)"/><path fill="var(--fill8, #e6e6e6)" d="m406.403 306.021 9.487-22.77-3.431-12.583a13.73 13.73 0 0 0-10.652-9.823 13.695 13.695 0 0 0-15.75 10.077c-2.599 10.201-4.594 23.463.654 28.71l.053.054-15.617 20.366 23 13Z"/><path fill="var(--fill3, #2f2e41)" d="M436.3 191.957c-1.765-2.38-4.303-4.072-6.244-6.311a43 43 0 0 0-3.148-3.72 12.93 12.93 0 0 0-8.355-2.986 21.09 21.09 0 0 0-17.212 8.169l-4.735-2.776-1.87 4.923a2.87 2.87 0 0 0-4.374 3.59c-.375-1.16-2.096-1.406-3.045-.64a3.67 3.67 0 0 0-1.048 3.341 6.725 6.725 0 0 0 5.073 5.563c2.06.459 4.456-.023 6.105 1.294 1.321 1.056 1.72 2.978 3.069 4 1.661 1.257 4.01.676 6.076.954a7.3 7.3 0 0 1 6.041 7.803 9.05 9.05 0 0 1 1.413-3.246 3.08 3.08 0 0 1 3.13-1.214c1.882.564 2.19 3.128 1.734 5.039-1.21 5.066-5.793 13.257-5.793 13.257 5.951 2.347 13.041.127 17.633-4.327 4.592-4.455 6.983-10.763 8.025-17.075.883-5.352.758-11.281-2.474-15.638"/><path fill="var(--fill6, #ccc)" d="M632.892 561.81a1.186 1.186 0 0 1-1.19 1.19h-280.29a1.19 1.19 0 1 1 0-2.38h280.29a1.187 1.187 0 0 1 1.19 1.19"/></symbol></defs></svg>