<svg xmlns="http://www.w3.org/2000/svg" aria-hidden="true" style="position:absolute;width:0;height:0;overflow:hidden"><defs><symbol id="icon-log-in" viewBox="0 0 32 32"><path fill="none" stroke-linecap="round" stroke-linejoin="round" stroke-width="2.5" d="M20 4h5.333A2.667 2.667 0 0 1 28 6.667v18.667a2.667 2.667 0 0 1-2.667 2.667H20M13.333 22.667 20 16l-6.667-6.667M20 16H4"/></symbol><symbol id="icon-log-out" viewBox="0 0 32 32"><path fill="none" stroke-linecap="round" stroke-linejoin="round" stroke-width="2.5" d="M12 28H6.667A2.667 2.667 0 0 1 4 25.333V6.666a2.667 2.667 0 0 1 2.667-2.667H12M21.333 22.667 28 16l-6.667-6.667M28 16H12"/></symbol><symbol id="icon-burger-menu" viewBox="0 0 32 32"><path stroke-linecap="round" stroke-linejoin="round" stroke-width="2.5" d="M5.333 16h21.333M5.333 8h21.333M5.333 24h21.333"/></symbol><symbol id="icon-x" viewBox="0 0 32 32"><path stroke-linecap="round" stroke-linejoin="round" stroke-width="2.5" d="M24 8 8 24M8 8l16 16"/></symbol><symbol id="icon-eye" viewBox="0 0 28 28"><path fill="none" stroke-linecap="round" stroke-linejoin="round" stroke-width="2.5" d="M2.333 14S5.833 5.833 14 5.833 25.667 14 25.667 14s-3.5 8.167-11.667 8.167S2.333 14 2.333 14"/><path fill="none" stroke-linecap="round" stroke-linejoin="round" stroke-width="2.5" d="M17.5 14a3.5 3.5 0 1 1-7 0 3.5 3.5 0 0 1 7 0"/></symbol><symbol id="icon-eye-off" viewBox="0 0 28 28"><path fill="none" stroke-linecap="round" stroke-linejoin="round" stroke-width="2.5" d="M11.527 11.527a3.5 3.5 0 1 0 4.945 4.949l.002-.002M12.518 5.927a12 12 0 0 1 1.48-.093h.001c8.167 0 11.667 8.167 11.667 8.167a15.4 15.4 0 0 1-1.971 3.156l.023-.029"/><path fill="none" stroke-linecap="round" stroke-linejoin="round" stroke-width="2.5" d="M7.712 7.712a15.9 15.9 0 0 0-5.337 6.194L2.334 14s3.5 8.167 11.667 8.167h.03c2.33 0 4.496-.701 6.299-1.904l-.041.026M2.333 2.333l23.333 23.333"/></symbol><symbol id="icon-google-logo" viewBox="0 0 28 28"><path fill="#4285f4" d="M26.32 14.292c0-.91-.082-1.785-.233-2.625H14v4.97h6.907c-.303 1.598-1.213 2.952-2.578 3.862v3.232h4.165c2.427-2.24 3.827-5.53 3.827-9.438z" style="fill:var(--color1, #4285f4)"/><path fill="#34a853" d="M14 26.833c3.465 0 6.37-1.143 8.493-3.103l-4.165-3.232c-1.143.77-2.602 1.237-4.328 1.237-3.337 0-6.172-2.252-7.187-5.285h-4.27v3.313c2.112 4.188 6.44 7.07 11.457 7.07" style="fill:var(--color2, #34a853)"/><path fill="#fbbc05" d="M6.813 16.438c-.257-.77-.408-1.587-.408-2.438s.152-1.668.408-2.438V8.249h-4.27c-.875 1.727-1.377 3.675-1.377 5.752s.502 4.025 1.377 5.752l3.325-2.59.945-.723z" style="fill:var(--color3, #fbbc05)"/><path fill="#ea4335" d="M14 6.277c1.89 0 3.57.653 4.912 1.913l3.675-3.675C20.359 2.438 17.465 1.167 14 1.167c-5.017 0-9.345 2.882-11.457 7.082l4.27 3.313C7.828 8.529 10.663 6.277 14 6.277" style="fill:var(--color4, #ea4335)"/></symbol><symbol id="icon-facebook-logo" viewBox="0 0 32 32"><path fill="#1877f2" d="M31.997 15.999C31.997 7.163 24.834 0 15.998 0S-.001 7.163-.001 15.999c0 7.985 5.851 14.604 13.499 15.804v-11.18H9.436v-4.625h4.062v-3.525c0-4.01 2.389-6.225 6.043-6.225 1.75 0 3.581.313 3.581.313v3.937h-2.017c-1.987 0-2.607 1.233-2.607 2.498v3.001h4.437l-.709 4.625h-3.728v11.18c7.649-1.2 13.499-7.819 13.499-15.804z" style="fill:var(--color1, #1877f2)"/></symbol><symbol id="icon-book-open" viewBox="0 0 16 16"><path fill="none" stroke-linejoin="round" stroke-width="1.5" d="M12.26 2c-1.49 0-2.24 0-2.81.29-.5.25-.91.66-1.16 1.16C8 4.02 8 4.77 8 6.26V14l.06-.11c.46-.69.7-1.04 1-1.29.27-.22.59-.39.92-.49.38-.11.8-.11 1.63-.11h.92c.75 0 1.12 0 1.4-.15.25-.13.46-.33.59-.58.14-.29.14-.66.14-1.41V4.13c0-.75 0-1.12-.14-1.41-.13-.25-.34-.45-.59-.58-.28-.14-.65-.14-1.4-.14zM3.73 2c1.49 0 2.24 0 2.81.29.5.25.91.66 1.16 1.16.3.57.3 1.32.3 2.81V14l-.07-.11c-.46-.69-.7-1.04-1-1.29-.27-.22-.59-.39-.92-.49-.38-.11-.8-.11-1.63-.11h-.92c-.75 0-1.12 0-1.4-.15-.25-.13-.46-.33-.59-.58-.14-.29-.14-.66-.14-1.41V4.13c0-.75 0-1.12.14-1.41.13-.25.34-.45.59-.58C2.34 2 2.71 2 3.46 2z"/></symbol><symbol id="icon-star" viewBox="0 0 17 19"><path d="M7.849.307 5.615 4.539a.58.58 0 0 1-.414.307l-4.717.816a.588.588 0 0 0-.319.993l3.334 3.428c.13.13.189.319.154.496l-.674 4.74a.588.588 0 0 0 .839.615l4.291-2.116a.6.6 0 0 1 .532 0l4.291 2.116a.588.588 0 0 0 .839-.615l-.674-4.74a.56.56 0 0 1 .154-.496l3.334-3.428a.588.588 0 0 0-.319-.993l-4.717-.816a.58.58 0 0 1-.414-.307L8.901.307a.6.6 0 0 0-1.052 0"/><path d="M5.615 4.539 7.849.307a.6.6 0 0 1 1.052 0l2.234 4.232a.58.58 0 0 0 .414.307l4.717.816c.473.083.65.65.319.993l-3.334 3.428a.56.56 0 0 0-.154.496l.674 4.74a.588.588 0 0 1-.839.615l-4.291-2.116a.6.6 0 0 0-.532 0l-4.291 2.116a.588.588 0 0 1-.839-.615l.674-4.74a.56.56 0 0 0-.154-.496L.165 6.655a.588.588 0 0 1 .319-.993l4.717-.816a.58.58 0 0 0 .414-.307m1.265.662a2.01 2.01 0 0 1-1.442 1.04l-3.168.556 2.246 2.305a1.96 1.96 0 0 1 .544 1.679l-.461 3.192 2.884-1.419a1.95 1.95 0 0 1 1.773 0l2.896 1.419-.461-3.192a1.95 1.95 0 0 1 .544-1.679l2.246-2.305-3.168-.556a2.01 2.01 0 0 1-1.442-1.04L8.37 2.364 6.881 5.201z"/></symbol><symbol id="icon-heart" viewBox="0 0 32 32"><path stroke-linejoin="round" stroke-width="2.5" d="M25.403 4.554a7.3 7.3 0 0 0-2.806-.566 7.446 7.446 0 0 0-5.194 2.154L16 7.557l-1.415-1.415a7.322 7.322 0 0 0-10.376 0 7.324 7.324 0 0 0 0 10.376l1.415 1.415 10.375 10.363 11.778-11.778a7.25 7.25 0 0 0 1.588-2.388 7.3 7.3 0 0 0 .566-2.806c0-.96-.197-1.908-.566-2.806a7.2 7.2 0 0 0-1.588-2.375 7.4 7.4 0 0 0-2.375-1.588z"/></symbol><symbol id="icon-home" viewBox="0 0 32 32"><path fill="#ffda44" d="M32 16c0 8.834-7.166 16-16 16-8.846 0-16-7.166-16-16C0 7.154 7.154 0 16 0c8.834 0 16 7.154 16 16" style="fill:var(--color1, #ffda44)"/><path fill="#338af3" d="M0 16C0 7.154 7.154 0 16 0c8.834 0 16 7.154 16 16z" style="fill:var(--color2, #338af3)"/></symbol><symbol id="icon-chevron-down" viewBox="0 0 20 20"><path fill="none" stroke="currentColor" stroke-linecap="round" stroke-linejoin="round" stroke-width="2" d="m5 7.5 5 5 5-5"/></symbol><symbol id="icon-filter-x" viewBox="0 0 32 32"><path fill="none" stroke-linecap="round" stroke-linejoin="round" stroke-width="2.667" d="M17.351 4H2.667l10.667 12.613v8.72L18.667 28V16.613l1.2-1.407"/><path stroke-linecap="round" stroke-linejoin="round" stroke-width="2.667" d="m29.333 4-6.667 6.667M22.667 4l6.667 6.667"/></symbol><symbol id="icon-filter" viewBox="0 0 32 32"><path fill="none" stroke-linecap="round" stroke-linejoin="round" stroke-width="2.667" d="M29.333 4H2.666l10.667 12.613v8.72L18.666 28V16.613z"/></symbol><symbol id="icon-list-filter" viewBox="0 0 32 32"><path stroke-linecap="round" stroke-linejoin="round" stroke-width="2.667" d="M4 8h24M9.333 16h13.333M13.333 24h5.333"/></symbol><symbol id="icon-list-restart" viewBox="0 0 32 32"><path stroke-linecap="round" stroke-linejoin="round" stroke-width="2.667" d="M28 8H4M9.333 16H4M9.333 24H4"/><path fill="none" stroke-linecap="round" stroke-linejoin="round" stroke-width="2.667" d="M16 24a6.667 6.667 0 0 0 12-4 6 6 0 0 0-6-6c-1.773 0-3.387.72-4.547 1.88l-2.787 2.787"/><path stroke-linecap="round" stroke-linejoin="round" stroke-width="2.667" d="M14.667 13.333v5.333H20"/></symbol><symbol id="icon-mac" viewBox="0 0 26 32"><path d="M18.093 5.117c1.142-1.382 1.715-2.88 1.715-4.48q-.002-.173-.011-.356c-.006-.092-.011-.189-.023-.281-.792.04-1.641.287-2.535.729q-1.344.681-2.214 1.698c-1.165 1.348-1.818 2.989-1.818 4.526q0 .317.034.608c1.807.149 3.476-.803 4.853-2.444zm6.08 22.911a17.8 17.8 0 0 0 1.686-3.092q.293-.712.551-1.486a7.1 7.1 0 0 1-2.168-1.451c-1.428-1.348-2.157-3.052-2.174-5.094-.023-2.622 1.142-4.664 3.505-6.121-1.319-1.91-3.304-2.971-5.943-3.189q-1.462-.13-3.568.642c-1.491.562-2.369.838-2.627.838-.35 0-1.136-.235-2.369-.706s-2.231-.711-2.989-.711a7.56 7.56 0 0 0-3.861 1.113c-1.187.717-2.14 1.704-2.857 2.949q-1.36 2.323-1.36 5.541c0 1.87.333 3.809 1.004 5.805.631 1.847 1.428 3.471 2.404 4.864q1.36 1.97 2.272 2.776c.952.901 1.899 1.331 2.857 1.285.625-.017 1.446-.241 2.467-.66q1.525-.627 2.851-.625 1.273-.002 2.776.625c1.503.627 1.864.631 2.581.631.992-.029 1.922-.442 2.788-1.256q.842-.741 2.174-2.679z"/></symbol><symbol id="icon-user-round" viewBox="0 0 32 32"><path stroke-linecap="round" stroke-linejoin="round" stroke-width="2.667" d="M22.667 10.667a6.667 6.667 0 1 1-13.334 0 6.667 6.667 0 0 1 13.334 0"/><path stroke-linecap="round" stroke-linejoin="round" stroke-width="2.667" d="M26.667 28c0-5.891-4.776-10.667-10.667-10.667S5.333 22.109 5.333 28"/></symbol><symbol id="icon-github" viewBox="0 0 32 32"><path fill="none" stroke-linecap="round" stroke-linejoin="round" stroke-width="2.667" d="M20 29.333V24a6.374 6.374 0 0 0-1.344-4.68l.01.013c4 0 8-2.667 8-7.333a7.2 7.2 0 0 0-1.333-4.667 9.9 9.9 0 0 0 0-4.667s-1.333 0-4 2a28.7 28.7 0 0 0-10.667 0c-2.667-2-4-2-4-2a9.2 9.2 0 0 0 0 4.667 7.15 7.15 0 0 0-1.332 4.689L5.333 12c0 4.667 4 7.333 8 7.333-.52.653-.907 1.4-1.133 2.2s-.293 1.64-.2 2.467v5.333"/><path stroke-linecap="round" stroke-linejoin="round" stroke-width="2.667" d="M12 24c-6.013 2.667-6.667-2.667-9.333-2.667"/></symbol><symbol id="icon-linkedin" viewBox="0 0 32 32"><path fill="none" stroke-linecap="round" stroke-linejoin="round" stroke-width="2.667" d="M21.333 10.667a8 8 0 0 1 8 8V28H24v-9.333a2.667 2.667 0 1 0-5.334 0V28h-5.333v-9.333a8 8 0 0 1 8-8M2.667 12H8v16H2.667zM8 5.333a2.667 2.667 0 1 1-5.334 0 2.667 2.667 0 0 1 5.334 0"/></symbol><symbol id="icon-phone" viewBox="0 0 32 32"><path fill="none" stroke-linecap="round" stroke-linejoin="round" stroke-width="2.667" d="M29.333 22.56v4.011a2.667 2.667 0 0 1-2.918 2.655l.011.001c-4.327-.482-8.236-1.943-11.607-4.155l.1.062C11.677 23.053 9 20.376 6.981 17.237l-.062-.103C4.761 13.848 3.299 9.92 2.836 5.692l-.01-.118a2.667 2.667 0 0 1 2.653-2.907h4.026c1.341 0 2.451.99 2.639 2.279l.002.014c.188 1.4.515 2.665.973 3.864l-.039-.117a2.655 2.655 0 0 1-.6 2.813l-1.693 1.693c1.932 3.356 4.644 6.068 7.897 7.945l.103.055 1.693-1.693a2.66 2.66 0 0 1 2.832-.594l-.018-.006c1.082.418 2.347.745 3.658.924l.089.01a2.67 2.67 0 0 1 2.294 2.641l-.001.07v-.003z"/></symbol><symbol id="icon-mail" viewBox="0 0 32 32"><path fill="none" stroke-linecap="round" stroke-linejoin="round" stroke-width="2.667" d="M5.333 5.333h21.333A2.667 2.667 0 0 1 29.333 8v16a2.667 2.667 0 0 1-2.667 2.667H5.333A2.667 2.667 0 0 1 2.666 24V8a2.667 2.667 0 0 1 2.667-2.667"/><path fill="none" stroke-linecap="round" stroke-linejoin="round" stroke-width="2.667" d="m29.333 9.333-11.96 7.6c-.39.248-.864.395-1.373.395s-.984-.147-1.384-.401l.011.006-11.96-7.6"/></symbol></defs></svg>